<svg version="1.1" id="Layer_1" xmlns="http://www.w3.org/2000/svg" xmlns:xlink="http://www.w3.org/1999/xlink" x="0px" y="0px"
	 viewBox="0 0 200 30" width="200" height="30" xml:space="preserve">
<style type="text/css">
	.st0{fill:#0657F9;}
	.st1{fill-rule:evenodd;clip-rule:evenodd;}
	.st2{fill-rule:evenodd;clip-rule:evenodd;fill:#FFFFFF;}
</style>
<path class="st0" d="M113.1,15.5v-0.3c0-1.1,0.2-2.2,0.5-3.2c0.3-1,0.8-1.8,1.4-2.5c0.6-0.7,1.4-1.3,2.3-1.7c0.9-0.4,2-0.6,3.1-0.6
	c1.2,0,2.2,0.2,3.2,0.6c0.9,0.4,1.7,0.9,2.3,1.7c0.6,0.7,1.1,1.6,1.4,2.5c0.3,1,0.5,2,0.5,3.2v0.3c0,1.1-0.2,2.2-0.5,3.2
	c-0.3,1-0.8,1.8-1.4,2.5c-0.6,0.7-1.4,1.3-2.3,1.7c-0.9,0.4-2,0.6-3.1,0.6c-1.2,0-2.2-0.2-3.2-0.6c-0.9-0.4-1.7-0.9-2.3-1.7
	c-0.6-0.7-1.1-1.6-1.4-2.5C113.3,17.7,113.1,16.7,113.1,15.5z M117.3,15.2v0.3c0,0.7,0.1,1.3,0.2,1.8c0.1,0.6,0.3,1.1,0.5,1.5
	c0.3,0.4,0.6,0.8,1,1c0.4,0.2,0.9,0.4,1.5,0.4c0.6,0,1.1-0.1,1.5-0.4c0.4-0.2,0.7-0.6,1-1c0.2-0.4,0.4-0.9,0.5-1.5
	c0.1-0.6,0.2-1.2,0.2-1.8v-0.3c0-0.6-0.1-1.2-0.2-1.8c-0.1-0.6-0.3-1.1-0.6-1.5c-0.3-0.4-0.6-0.8-1-1c-0.4-0.3-0.9-0.4-1.5-0.4
	s-1.1,0.1-1.5,0.4c-0.4,0.3-0.7,0.6-1,1c-0.3,0.4-0.4,0.9-0.5,1.5C117.3,14,117.3,14.6,117.3,15.2z M131.9,1v2.2
	c0,0.6-0.1,1.3-0.4,1.9c-0.2,0.7-0.5,1.3-0.9,1.9c-0.4,0.6-0.8,1.1-1.3,1.5l-1.9-1.1c0.4-0.6,0.7-1.2,0.9-1.8
	c0.3-0.7,0.4-1.5,0.4-2.3V1H131.9z M139.2,20.2c0.5,0,1-0.1,1.4-0.3c0.4-0.2,0.7-0.5,0.9-0.8c0.2-0.4,0.4-0.8,0.4-1.3h3.9
	c0,1.1-0.3,2.1-0.9,2.9c-0.6,0.8-1.4,1.5-2.3,2c-1,0.5-2.1,0.7-3.3,0.7c-1.2,0-2.3-0.2-3.2-0.6c-0.9-0.4-1.6-1-2.2-1.7
	c-0.6-0.7-1-1.6-1.3-2.5c-0.3-1-0.4-2-0.4-3.1v-0.4c0-1.1,0.1-2.1,0.4-3.1c0.3-1,0.7-1.8,1.3-2.5c0.6-0.7,1.3-1.3,2.2-1.7
	c0.9-0.4,1.9-0.6,3.1-0.6c1.3,0,2.4,0.2,3.4,0.7c1,0.5,1.7,1.2,2.3,2.1c0.6,0.9,0.8,2,0.9,3.2h-3.9c0-0.5-0.1-1-0.3-1.4
	c-0.2-0.4-0.5-0.8-0.9-1c-0.4-0.3-0.9-0.4-1.4-0.4c-0.6,0-1.1,0.1-1.5,0.4c-0.4,0.3-0.7,0.6-0.9,1c-0.2,0.4-0.4,0.9-0.4,1.5
	c-0.1,0.5-0.1,1.1-0.1,1.7v0.4c0,0.6,0,1.2,0.1,1.7c0.1,0.6,0.2,1.1,0.4,1.5c0.2,0.4,0.5,0.8,0.9,1S138.5,20.2,139.2,20.2z M151.6,1
	v22.2h-4.2V1H151.6z M153.5,15.5v-0.3c0-1.1,0.2-2.2,0.5-3.2c0.3-1,0.8-1.8,1.4-2.5s1.4-1.3,2.3-1.7c0.9-0.4,2-0.6,3.1-0.6
	c1.2,0,2.2,0.2,3.2,0.6c0.9,0.4,1.7,0.9,2.3,1.7c0.6,0.7,1.1,1.6,1.4,2.5c0.3,1,0.5,2,0.5,3.2v0.3c0,1.1-0.2,2.2-0.5,3.2
	c-0.3,1-0.8,1.8-1.4,2.5c-0.6,0.7-1.4,1.3-2.3,1.7c-0.9,0.4-2,0.6-3.1,0.6c-1.2,0-2.2-0.2-3.2-0.6c-0.9-0.4-1.7-0.9-2.3-1.7
	c-0.6-0.7-1.1-1.6-1.4-2.5C153.7,17.7,153.5,16.7,153.5,15.5z M157.7,15.2v0.3c0,0.7,0.1,1.3,0.2,1.8c0.1,0.6,0.3,1.1,0.5,1.5
	c0.3,0.4,0.6,0.8,1,1c0.4,0.2,0.9,0.4,1.5,0.4c0.6,0,1.1-0.1,1.5-0.4c0.4-0.2,0.7-0.6,1-1c0.2-0.4,0.4-0.9,0.5-1.5
	c0.1-0.6,0.2-1.2,0.2-1.8v-0.3c0-0.6-0.1-1.2-0.2-1.8c-0.1-0.6-0.3-1.1-0.6-1.5c-0.3-0.4-0.6-0.8-1-1c-0.4-0.3-0.9-0.4-1.5-0.4
	c-0.6,0-1.1,0.1-1.5,0.4c-0.4,0.3-0.7,0.6-1,1c-0.3,0.4-0.4,0.9-0.5,1.5C157.7,14,157.7,14.6,157.7,15.2z M176.4,20.2
	c0.5,0,1-0.1,1.4-0.3c0.4-0.2,0.7-0.5,0.9-0.8c0.2-0.4,0.4-0.8,0.4-1.3h3.9c0,1.1-0.3,2.1-0.9,2.9c-0.6,0.8-1.4,1.5-2.3,2
	c-1,0.5-2.1,0.7-3.3,0.7c-1.2,0-2.3-0.2-3.2-0.6c-0.9-0.4-1.6-1-2.2-1.7c-0.6-0.7-1-1.6-1.3-2.5c-0.3-1-0.4-2-0.4-3.1v-0.4
	c0-1.1,0.1-2.1,0.4-3.1c0.3-1,0.7-1.8,1.3-2.5c0.6-0.7,1.3-1.3,2.2-1.7c0.9-0.4,1.9-0.6,3.1-0.6c1.3,0,2.4,0.2,3.4,0.7
	c1,0.5,1.7,1.2,2.3,2.1c0.6,0.9,0.8,2,0.9,3.2h-3.9c0-0.5-0.1-1-0.3-1.4c-0.2-0.4-0.5-0.8-0.9-1c-0.4-0.3-0.9-0.4-1.4-0.4
	c-0.6,0-1.1,0.1-1.5,0.4c-0.4,0.3-0.7,0.6-0.9,1c-0.2,0.4-0.4,0.9-0.4,1.5c-0.1,0.5-0.1,1.1-0.1,1.7v0.4c0,0.6,0,1.2,0.1,1.7
	c0.1,0.6,0.2,1.1,0.4,1.5c0.2,0.4,0.5,0.8,0.9,1C175.3,20.1,175.8,20.2,176.4,20.2z M188.7,1v22.2h-4.2V1H188.7z M198.5,7.6
	l-6.8,7.7l-3.6,3.7l-1.5-3l2.9-3.7l4.1-4.8H198.5z M194.2,23.2l-4.6-7.2l2.9-2.5l6.5,9.7H194.2z"/>
<path d="M40.8,17.3l2.9-9.7h4.6l-6.4,18.1l-0.4,0.8c-1,2-2.5,3.1-4.7,3.1c-0.6,0-1.2-0.1-1.9-0.3v-3.2l0.6,0c0.8,0,1.4-0.1,1.8-0.4
	c0.4-0.2,0.7-0.6,0.9-1.2l0.5-1.3L33.3,7.6h4.6L40.8,17.3z"/>
<path d="M57.1,23.5c-2.3,0-4.2-0.7-5.7-2.1c-1.5-1.4-2.2-3.3-2.2-5.6v-0.4c0-1.6,0.3-3,0.9-4.2c0.6-1.2,1.5-2.2,2.6-2.9
	c1.1-0.7,2.4-1,3.9-1c2.2,0,3.9,0.7,5.1,2c1.3,1.3,1.9,3.3,1.9,5.7v1.7H53.5c0.1,1,0.5,1.8,1.2,2.5c0.7,0.6,1.6,0.9,2.6,0.9
	c1.6,0,2.9-0.6,3.8-1.7l2.1,2.3c-0.6,0.9-1.5,1.6-2.6,2.1C59.6,23.2,58.4,23.5,57.1,23.5z M56.6,10.6c-0.8,0-1.5,0.3-2.1,0.8
	c-0.5,0.6-0.9,1.4-1,2.4h5.9v-0.3c0-0.9-0.3-1.6-0.8-2.1C58.2,10.9,57.5,10.6,56.6,10.6z"/>
<path d="M75.3,23.2c-0.2-0.4-0.3-0.8-0.4-1.4c-1,1.1-2.4,1.7-4,1.7c-1.6,0-2.9-0.4-3.9-1.3c-1-0.9-1.5-2-1.5-3.4
	c0-1.7,0.6-2.9,1.9-3.8c1.3-0.9,3.1-1.3,5.4-1.3h2v-0.9c0-0.7-0.2-1.3-0.6-1.7c-0.4-0.4-1-0.7-1.8-0.7c-0.7,0-1.3,0.2-1.7,0.5
	c-0.4,0.3-0.6,0.8-0.6,1.4h-4.3c0-0.9,0.3-1.7,0.9-2.5C67.2,9,68,8.4,69.1,7.9c1-0.4,2.2-0.7,3.5-0.7c2,0,3.5,0.5,4.7,1.5
	c1.2,1,1.7,2.3,1.7,4.1v6.8c0,1.5,0.2,2.6,0.6,3.4v0.2H75.3z M71.8,20.3c0.6,0,1.2-0.1,1.7-0.4c0.5-0.3,0.9-0.7,1.2-1.1v-2.7h-1.6
	c-2.1,0-3.3,0.7-3.4,2.2l0,0.2c0,0.5,0.2,0.9,0.6,1.3C70.6,20.1,71.1,20.3,71.8,20.3z"/>
<path d="M91.2,11.5c-0.6-0.1-1.1-0.1-1.5-0.1c-1.6,0-2.7,0.5-3.2,1.6v10.2h-4.3V7.6h4l0.1,1.9c0.9-1.4,2-2.2,3.5-2.2
	c0.5,0,0.9,0.1,1.3,0.2L91.2,11.5z"/>
<path d="M97.2,7.6l0.1,1.8c1.1-1.4,2.7-2.1,4.6-2.1c1.7,0,2.9,0.5,3.8,1.5c0.8,1,1.2,2.4,1.3,4.4v10.1h-4.3v-10
	c0-0.9-0.2-1.5-0.6-1.9c-0.4-0.4-1-0.6-2-0.6c-1.2,0-2.1,0.5-2.7,1.5v11h-4.3V7.6H97.2z"/>
<path class="st1" d="M24.2,17.3c0-1.5-0.3-3-0.9-4.4c-0.6-1.4-1.4-2.6-2.5-3.7c-1.1-1.1-2.4-1.9-3.8-2.5c-1.4-0.6-2.9-0.9-4.4-0.9
	c-1.5,0-3,0.3-4.4,0.9C6.8,7.3,5.5,8.2,4.4,9.2c-1.1,1.1-1.9,2.3-2.5,3.7C1.3,14.3,1,15.8,1,17.3s0.3,3,0.9,4.4
	c0.6,1.4,1.4,2.6,2.5,3.7c1.1,1.1,2.4,1.9,3.8,2.5c1.4,0.6,2.9,0.9,4.4,0.9c1.5,0,3-0.3,4.4-0.9c1.4-0.6,2.7-1.4,3.8-2.5
	c1.1-1.1,1.9-2.3,2.5-3.7C23.9,20.3,24.2,18.8,24.2,17.3z"/>
<path class="st2" d="M12,12.1h1.2v10.3H12V12.1z"/>
<path class="st2" d="M11.3,17v-1.2c-1-0.5-1.6-1.4-1.6-2.6c0-1.6,1.3-2.9,2.9-2.9c1.8,0,3.1,1.3,3.1,2.9c0,0.4-0.1,0.8-0.3,1.2
	l-0.5-1.6l-1,0.3l0.9,3.4l3.5-1.3l-0.4-1l-1.3,0.4c0.2-0.5,0.3-0.9,0.3-1.5c0-2.2-1.8-4-4.3-4c-2.2,0-4.1,1.8-4.1,4
	C8.5,15,9.7,16.5,11.3,17z"/>
<path class="st2" d="M13.9,17.6v1.2c1,0.5,1.6,1.4,1.6,2.6c0,1.6-1.3,2.9-2.9,2.9c-1.8,0-3.1-1.3-3.1-2.9c0-0.4,0.1-0.8,0.3-1.2
	l0.5,1.6l1-0.3l-0.9-3.4l-3.5,1.3l0.4,1l1.3-0.4c-0.2,0.5-0.3,0.9-0.3,1.5c0,2.2,1.8,4,4.3,4c2.2,0,4.1-1.8,4.1-4
	C16.7,19.6,15.5,18.1,13.9,17.6z"/>
</svg>
