<svg version="1.1" id="Layer_1" xmlns="http://www.w3.org/2000/svg" xmlns:xlink="http://www.w3.org/1999/xlink" x="0px" y="0px"
	 viewBox="0 0 262 40" style="enable-background:new 0 0 262 40;" width="300" xml:space="preserve">
<style type="text/css">
	.st0{fill:#657BB1;}
	.st1{fill-rule:evenodd;clip-rule:evenodd;}
	.st2{fill-rule:evenodd;clip-rule:evenodd;fill:#FFFFFF;}
</style>
<path class="st0" d="M148.6,20v-0.4c0-1.5,0.2-2.9,0.6-4.1c0.4-1.3,1.1-2.4,1.9-3.3c0.8-0.9,1.8-1.7,3-2.2c1.2-0.5,2.6-0.8,4.1-0.8
	s2.9,0.3,4.1,0.8c1.2,0.5,2.2,1.2,3,2.2c0.8,0.9,1.5,2,1.9,3.3c0.4,1.3,0.6,2.6,0.6,4.1V20c0,1.5-0.2,2.9-0.6,4.1
	c-0.4,1.3-1.1,2.4-1.9,3.3c-0.8,0.9-1.8,1.7-3,2.2c-1.2,0.5-2.6,0.8-4.1,0.8s-2.9-0.3-4.1-0.8c-1.2-0.5-2.2-1.2-3-2.2
	c-0.8-0.9-1.4-2-1.9-3.3C148.8,22.9,148.6,21.5,148.6,20z M154,19.6V20c0,0.9,0.1,1.7,0.2,2.4c0.2,0.7,0.4,1.4,0.7,2
	c0.3,0.6,0.8,1,1.3,1.3c0.5,0.3,1.2,0.5,2,0.5c0.8,0,1.4-0.2,1.9-0.5c0.5-0.3,1-0.7,1.3-1.3c0.3-0.6,0.6-1.2,0.7-2
	c0.2-0.7,0.2-1.5,0.2-2.4v-0.4c0-0.8-0.1-1.6-0.2-2.3c-0.2-0.7-0.4-1.4-0.7-2c-0.3-0.6-0.8-1-1.3-1.4c-0.5-0.3-1.2-0.5-2-0.5
	s-1.4,0.2-2,0.5c-0.5,0.3-1,0.8-1.3,1.4c-0.3,0.6-0.6,1.2-0.7,2C154.1,18,154,18.8,154,19.6z"/>
<path class="st0" d="M173.2,1v2.9c0,0.8-0.2,1.7-0.5,2.5c-0.3,0.9-0.7,1.7-1.2,2.5c-0.5,0.8-1.1,1.4-1.7,2l-2.6-1.5
	c0.5-0.7,0.9-1.5,1.2-2.4c0.3-0.9,0.5-1.9,0.5-3.1V1H173.2z"/>
<path class="st0" d="M182.7,26.2c0.7,0,1.3-0.1,1.8-0.4c0.5-0.3,0.9-0.6,1.2-1.1c0.3-0.5,0.5-1,0.5-1.7h5.1c0,1.4-0.4,2.7-1.2,3.8
	c-0.8,1.1-1.8,2-3,2.6c-1.3,0.6-2.7,0.9-4.3,0.9c-1.6,0-3-0.3-4.2-0.8c-1.2-0.5-2.1-1.3-2.9-2.2c-0.8-0.9-1.4-2-1.8-3.3
	c-0.4-1.3-0.6-2.6-0.6-4v-0.5c0-1.4,0.2-2.8,0.6-4c0.4-1.3,1-2.4,1.8-3.3c0.8-0.9,1.8-1.7,2.9-2.2c1.2-0.5,2.5-0.8,4.1-0.8
	c1.7,0,3.1,0.3,4.4,1c1.3,0.6,2.3,1.6,3,2.8c0.7,1.2,1.1,2.6,1.1,4.2h-5.1c0-0.7-0.2-1.3-0.4-1.9c-0.3-0.6-0.7-1-1.2-1.3
	c-0.5-0.3-1.1-0.5-1.9-0.5c-0.8,0-1.4,0.2-1.9,0.5c-0.5,0.3-0.9,0.8-1.2,1.4c-0.3,0.6-0.5,1.2-0.6,1.9c-0.1,0.7-0.2,1.5-0.2,2.3v0.5
	c0,0.8,0,1.6,0.2,2.3c0.1,0.7,0.3,1.4,0.6,1.9c0.3,0.6,0.7,1,1.2,1.3C181.2,26,181.9,26.2,182.7,26.2z"/>
<path class="st0" d="M199,1v29h-5.5V1H199z"/>
<path class="st0" d="M201.5,20v-0.4c0-1.5,0.2-2.9,0.6-4.1c0.4-1.3,1.1-2.4,1.9-3.3c0.8-0.9,1.8-1.7,3-2.2c1.2-0.5,2.6-0.8,4.1-0.8
	c1.5,0,2.9,0.3,4.1,0.8c1.2,0.5,2.2,1.2,3,2.2c0.8,0.9,1.5,2,1.9,3.3c0.4,1.3,0.6,2.6,0.6,4.1V20c0,1.5-0.2,2.9-0.6,4.1
	c-0.4,1.3-1.1,2.4-1.9,3.3c-0.8,0.9-1.8,1.7-3,2.2c-1.2,0.5-2.6,0.8-4.1,0.8c-1.5,0-2.9-0.3-4.1-0.8c-1.2-0.5-2.2-1.2-3-2.2
	c-0.8-0.9-1.4-2-1.9-3.3C201.7,22.9,201.5,21.5,201.5,20z M206.9,19.6V20c0,0.9,0.1,1.7,0.2,2.4c0.2,0.7,0.4,1.4,0.7,2
	c0.3,0.6,0.8,1,1.3,1.3c0.5,0.3,1.2,0.5,2,0.5c0.8,0,1.4-0.2,1.9-0.5c0.5-0.3,1-0.7,1.3-1.3c0.3-0.6,0.6-1.2,0.7-2
	c0.2-0.7,0.2-1.5,0.2-2.4v-0.4c0-0.8-0.1-1.6-0.2-2.3c-0.2-0.7-0.4-1.4-0.7-2c-0.3-0.6-0.8-1-1.3-1.4c-0.5-0.3-1.2-0.5-2-0.5
	c-0.8,0-1.4,0.2-2,0.5c-0.5,0.3-1,0.8-1.3,1.4c-0.3,0.6-0.6,1.2-0.7,2C207,18,206.9,18.8,206.9,19.6z"/>
<path class="st0" d="M231.5,26.2c0.7,0,1.3-0.1,1.8-0.4c0.5-0.3,0.9-0.6,1.2-1.1c0.3-0.5,0.5-1,0.5-1.7h5.1c0,1.4-0.4,2.7-1.2,3.8
	c-0.8,1.1-1.8,2-3,2.6c-1.3,0.6-2.7,0.9-4.3,0.9c-1.6,0-3-0.3-4.2-0.8c-1.2-0.5-2.1-1.3-2.9-2.2c-0.8-0.9-1.4-2-1.8-3.3
	c-0.4-1.3-0.6-2.6-0.6-4v-0.5c0-1.4,0.2-2.8,0.6-4c0.4-1.3,1-2.4,1.8-3.3c0.8-0.9,1.8-1.7,2.9-2.2c1.2-0.5,2.5-0.8,4.1-0.8
	c1.7,0,3.1,0.3,4.4,1c1.3,0.6,2.3,1.6,3,2.8c0.7,1.2,1.1,2.6,1.1,4.2h-5.1c0-0.7-0.2-1.3-0.4-1.9c-0.3-0.6-0.7-1-1.2-1.3
	c-0.5-0.3-1.1-0.5-1.9-0.5c-0.8,0-1.4,0.2-1.9,0.5c-0.5,0.3-0.9,0.8-1.2,1.4c-0.3,0.6-0.5,1.2-0.6,1.9c-0.1,0.7-0.2,1.5-0.2,2.3v0.5
	c0,0.8,0.1,1.6,0.2,2.3c0.1,0.7,0.3,1.4,0.6,1.9c0.3,0.6,0.7,1,1.2,1.3C230,26,230.7,26.2,231.5,26.2z"/>
<path class="st0" d="M247.5,1v29H242V1H247.5z M260.4,9.6l-8.9,10.1l-4.8,4.8l-2-3.9l3.8-4.8l5.3-6.2H260.4z M254.7,30l-6-9.4
	l3.8-3.3L261,30H254.7z"/>
<path d="M53.1,22.3l3.9-12.7h6l-8.4,23.6l-0.5,1.1c-1.2,2.7-3.3,4-6.2,4c-0.8,0-1.6-0.1-2.5-0.4v-4.1l0.8,0c1.1,0,1.8-0.2,2.4-0.5
	c0.5-0.3,0.9-0.8,1.2-1.6l0.7-1.7L43.2,9.6h6L53.1,22.3z"/>
<path d="M74.4,30.4c-3.1,0-5.5-0.9-7.5-2.8c-1.9-1.8-2.9-4.3-2.9-7.4v-0.5c0-2.1,0.4-3.9,1.2-5.5c0.8-1.6,2-2.9,3.4-3.7
	c1.5-0.9,3.2-1.3,5.1-1.3c2.9,0,5.1,0.9,6.7,2.6c1.6,1.8,2.5,4.3,2.5,7.5v2.2H69.7c0.2,1.3,0.7,2.4,1.6,3.2c0.9,0.8,2.1,1.2,3.4,1.2
	c2.1,0,3.8-0.8,5-2.3l2.7,3c-0.8,1.2-2,2.1-3.4,2.7C77.7,30.1,76.2,30.4,74.4,30.4z M73.8,13.6c-1.1,0-2,0.4-2.7,1.1
	c-0.7,0.7-1.1,1.8-1.3,3.1h7.7v-0.4c0-1.2-0.4-2.1-1-2.8C75.9,14,75,13.6,73.8,13.6z"/>
<path d="M98.2,30c-0.3-0.5-0.4-1.1-0.6-1.8c-1.3,1.5-3.1,2.2-5.3,2.2c-2,0-3.7-0.6-5.1-1.7c-1.3-1.2-2-2.6-2-4.4
	c0-2.2,0.8-3.8,2.4-5c1.6-1.2,4-1.7,7.1-1.8h2.6v-1.2c0-0.9-0.3-1.7-0.8-2.3c-0.5-0.6-1.3-0.9-2.3-0.9c-0.9,0-1.7,0.2-2.2,0.7
	c-0.5,0.4-0.8,1-0.8,1.8h-5.6c0-1.2,0.4-2.3,1.1-3.3c0.7-1,1.8-1.8,3.2-2.4c1.4-0.6,2.9-0.9,4.6-0.9c2.6,0,4.6,0.6,6.1,1.9
	c1.5,1.3,2.3,3,2.3,5.3v8.9c0,1.9,0.3,3.4,0.8,4.4V30H98.2z M93.6,26.2c0.8,0,1.6-0.2,2.3-0.5c0.7-0.4,1.2-0.9,1.5-1.5v-3.5h-2.1
	c-2.8,0-4.3,0.9-4.5,2.8l0,0.3c0,0.7,0.2,1.2,0.7,1.7C92.1,26,92.8,26.2,93.6,26.2z"/>
<path d="M119,14.7c-0.8-0.1-1.4-0.2-2-0.2c-2.1,0-3.5,0.7-4.1,2.1V30h-5.6V9.6h5.3l0.2,2.4c1.1-1.9,2.7-2.8,4.6-2.8
	c0.6,0,1.2,0.1,1.7,0.2L119,14.7z"/>
<path d="M126.9,9.6l0.2,2.4c1.5-1.8,3.5-2.7,6-2.7c2.2,0,3.9,0.6,4.9,1.9c1.1,1.3,1.6,3.2,1.7,5.7V30H134V17c0-1.2-0.3-2-0.8-2.5
	c-0.5-0.5-1.4-0.8-2.6-0.8c-1.6,0-2.7,0.7-3.5,2V30h-5.6V9.6H126.9z"/>
<path class="st1" d="M31.4,22.3c0-2-0.4-3.9-1.2-5.7c-0.8-1.8-1.9-3.5-3.3-4.8c-1.4-1.4-3.1-2.5-4.9-3.2c-1.8-0.7-3.8-1.1-5.8-1.1
	s-4,0.4-5.8,1.1c-1.8,0.7-3.5,1.9-4.9,3.2c-1.4,1.4-2.5,3-3.3,4.8C1.4,18.4,1,20.4,1,22.3s0.4,3.9,1.2,5.7c0.8,1.8,1.9,3.5,3.3,4.8
	c1.4,1.4,3.1,2.5,4.9,3.2c1.8,0.7,3.8,1.1,5.8,1.1s4-0.4,5.8-1.1c1.8-0.7,3.5-1.9,4.9-3.2c1.4-1.4,2.5-3,3.3-4.8
	C31,26.2,31.4,24.3,31.4,22.3z"/>
<path class="st2" d="M15.4,15.6H17V29h-1.6V15.6z"/>
<path class="st2" d="M14.5,21.9v-1.6c-1.3-0.6-2.1-1.9-2.1-3.4c0-2.1,1.7-3.7,3.8-3.7c2.4,0,4.1,1.7,4.1,3.7c0,0.5-0.1,1-0.4,1.6
	l-0.7-2.1l-1.3,0.4l1.2,4.5l4.6-1.7l-0.6-1.3l-1.7,0.6c0.3-0.7,0.4-1.2,0.4-1.9c0-2.9-2.4-5.2-5.6-5.2c-2.9,0-5.3,2.3-5.3,5.2
	C10.9,19.3,12.4,21.2,14.5,21.9z"/>
<path class="st2" d="M17.9,22.7v1.6c1.3,0.6,2.1,1.9,2.1,3.4c0,2.1-1.7,3.7-3.8,3.7c-2.4,0-4.1-1.7-4.1-3.7c0-0.5,0.1-1,0.4-1.6
	l0.7,2.1l1.3-0.4l-1.2-4.5L8.7,25l0.6,1.3l1.7-0.6c-0.3,0.7-0.4,1.2-0.4,1.9c0,2.9,2.4,5.2,5.6,5.2c2.9,0,5.3-2.3,5.3-5.2
	C21.5,25.4,20,23.4,17.9,22.7z"/>
</svg>
