<svg version="1.1" id="Layer_1" xmlns="http://www.w3.org/2000/svg" xmlns:xlink="http://www.w3.org/1999/xlink" x="0px" y="0px"
	 viewBox="0 0 301.3 46" style="enable-background:new 0 0 301.3 46;" xml:space="preserve">
<style type="text/css">
	.st0{fill:#0657F9;}
	.st1{fill-rule:evenodd;clip-rule:evenodd;}
	.st2{fill-rule:evenodd;clip-rule:evenodd;fill:#FFFFFF;}
</style>
<path class="st0" d="M170.2,22.8v-0.5c0-1.7,0.2-3.3,0.7-4.7c0.5-1.5,1.2-2.7,2.1-3.8c0.9-1.1,2.1-1.9,3.5-2.5
	c1.4-0.6,2.9-0.9,4.7-0.9c1.8,0,3.4,0.3,4.7,0.9c1.4,0.6,2.5,1.4,3.5,2.5c1,1.1,1.7,2.3,2.2,3.8c0.5,1.4,0.7,3,0.7,4.7v0.5
	c0,1.7-0.2,3.3-0.7,4.7c-0.5,1.4-1.2,2.7-2.2,3.8c-0.9,1.1-2.1,1.9-3.5,2.5c-1.4,0.6-2.9,0.9-4.7,0.9c-1.8,0-3.4-0.3-4.7-0.9
	c-1.4-0.6-2.5-1.4-3.5-2.5c-0.9-1.1-1.7-2.3-2.1-3.8C170.4,26.1,170.2,24.5,170.2,22.8z M176.4,22.4v0.5c0,1,0.1,1.9,0.3,2.8
	c0.2,0.9,0.4,1.6,0.8,2.3c0.4,0.6,0.9,1.1,1.5,1.5c0.6,0.4,1.4,0.5,2.3,0.5c0.9,0,1.6-0.2,2.2-0.5c0.6-0.4,1.1-0.9,1.5-1.5
	c0.4-0.6,0.6-1.4,0.8-2.3c0.2-0.9,0.3-1.8,0.3-2.8v-0.5c0-1-0.1-1.8-0.3-2.7c-0.2-0.9-0.5-1.6-0.8-2.3c-0.4-0.7-0.9-1.2-1.5-1.6
	c-0.6-0.4-1.4-0.6-2.3-0.6s-1.6,0.2-2.3,0.6c-0.6,0.4-1.1,0.9-1.5,1.6c-0.4,0.6-0.7,1.4-0.8,2.3C176.5,20.5,176.4,21.4,176.4,22.4z"
	/>
<path class="st0" d="M198.4,1v3.3c0,0.9-0.2,1.9-0.5,2.9c-0.3,1-0.8,1.9-1.4,2.8c-0.6,0.9-1.2,1.6-1.9,2.3l-2.9-1.7
	c0.5-0.9,1-1.8,1.4-2.8c0.4-1,0.6-2.2,0.6-3.5V1H198.4z"/>
<path class="st0" d="M209.2,29.9c0.8,0,1.4-0.1,2-0.4c0.6-0.3,1.1-0.7,1.4-1.3c0.3-0.5,0.5-1.2,0.5-1.9h5.9c0,1.6-0.5,3.1-1.3,4.4
	c-0.9,1.3-2,2.3-3.5,3c-1.5,0.7-3.1,1.1-4.9,1.1c-1.8,0-3.4-0.3-4.8-0.9c-1.3-0.6-2.5-1.4-3.4-2.5c-0.9-1.1-1.6-2.3-2-3.8
	c-0.4-1.4-0.7-3-0.7-4.6v-0.6c0-1.7,0.2-3.2,0.7-4.6c0.4-1.4,1.1-2.7,2-3.8c0.9-1.1,2-1.9,3.4-2.5c1.3-0.6,2.9-0.9,4.7-0.9
	c1.9,0,3.6,0.4,5,1.1c1.5,0.7,2.6,1.8,3.4,3.2c0.8,1.4,1.3,3,1.3,4.8h-5.9c0-0.8-0.2-1.5-0.5-2.1c-0.3-0.6-0.8-1.1-1.3-1.5
	c-0.6-0.4-1.3-0.6-2.1-0.6c-0.9,0-1.7,0.2-2.2,0.6c-0.6,0.4-1,0.9-1.3,1.6c-0.3,0.6-0.5,1.4-0.7,2.2c-0.1,0.8-0.2,1.7-0.2,2.6v0.6
	c0,0.9,0.1,1.8,0.2,2.6c0.1,0.8,0.3,1.6,0.6,2.2c0.3,0.6,0.8,1.2,1.4,1.5C207.6,29.7,208.3,29.9,209.2,29.9z"/>
<path class="st0" d="M227.9,1v33.3h-6.3V1H227.9z"/>
<path class="st0" d="M230.8,22.8v-0.5c0-1.7,0.2-3.3,0.7-4.7c0.5-1.5,1.2-2.7,2.1-3.8c0.9-1.1,2.1-1.9,3.5-2.5
	c1.4-0.6,2.9-0.9,4.7-0.9c1.8,0,3.4,0.3,4.7,0.9c1.4,0.6,2.5,1.4,3.5,2.5c1,1.1,1.7,2.3,2.2,3.8c0.5,1.4,0.7,3,0.7,4.7v0.5
	c0,1.7-0.2,3.3-0.7,4.7c-0.5,1.4-1.2,2.7-2.2,3.8c-0.9,1.1-2.1,1.9-3.5,2.5c-1.4,0.6-2.9,0.9-4.7,0.9c-1.8,0-3.4-0.3-4.7-0.9
	c-1.4-0.6-2.5-1.4-3.5-2.5c-0.9-1.1-1.7-2.3-2.1-3.8C231,26.1,230.8,24.5,230.8,22.8z M237,22.4v0.5c0,1,0.1,1.9,0.3,2.8
	c0.2,0.9,0.4,1.6,0.8,2.3c0.4,0.6,0.9,1.1,1.5,1.5c0.6,0.4,1.4,0.5,2.3,0.5c0.9,0,1.6-0.2,2.2-0.5c0.6-0.4,1.1-0.9,1.5-1.5
	c0.4-0.6,0.6-1.4,0.8-2.3c0.2-0.9,0.3-1.8,0.3-2.8v-0.5c0-1-0.1-1.8-0.3-2.7c-0.2-0.9-0.5-1.6-0.8-2.3c-0.4-0.7-0.9-1.2-1.5-1.6
	c-0.6-0.4-1.4-0.6-2.3-0.6c-0.9,0-1.6,0.2-2.3,0.6c-0.6,0.4-1.1,0.9-1.5,1.6c-0.4,0.6-0.7,1.4-0.8,2.3C237.1,20.5,237,21.4,237,22.4
	z"/>
<path class="st0" d="M265.2,29.9c0.8,0,1.4-0.1,2-0.4c0.6-0.3,1.1-0.7,1.4-1.3c0.3-0.5,0.5-1.2,0.5-1.9h5.9c0,1.6-0.5,3.1-1.3,4.4
	c-0.9,1.3-2,2.3-3.5,3c-1.5,0.7-3.1,1.1-4.9,1.1c-1.8,0-3.4-0.3-4.8-0.9c-1.3-0.6-2.5-1.4-3.4-2.5c-0.9-1.1-1.6-2.3-2-3.8
	c-0.4-1.4-0.7-3-0.7-4.6v-0.6c0-1.7,0.2-3.2,0.7-4.6c0.4-1.4,1.1-2.7,2-3.8c0.9-1.1,2-1.9,3.4-2.5c1.3-0.6,2.9-0.9,4.7-0.9
	c1.9,0,3.6,0.4,5,1.1c1.5,0.7,2.6,1.8,3.4,3.2c0.8,1.4,1.3,3,1.3,4.8h-5.9c0-0.8-0.2-1.5-0.5-2.1c-0.3-0.6-0.8-1.1-1.3-1.5
	c-0.6-0.4-1.3-0.6-2.1-0.6c-0.9,0-1.7,0.2-2.2,0.6c-0.6,0.4-1,0.9-1.3,1.6c-0.3,0.6-0.5,1.4-0.7,2.2c-0.1,0.8-0.2,1.7-0.2,2.6v0.6
	c0,0.9,0.1,1.8,0.2,2.6c0.1,0.8,0.3,1.6,0.6,2.2c0.3,0.6,0.8,1.2,1.4,1.5C263.5,29.7,264.2,29.9,265.2,29.9z"/>
<path class="st0" d="M283.5,1v33.3h-6.2V1H283.5z M298.3,10.9l-10.2,11.6l-5.5,5.5l-2.3-4.5l4.3-5.5l6.1-7.1H298.3z M291.8,34.3
	l-6.9-10.8l4.3-3.8l9.8,14.6H291.8z"/>
<path d="M60.7,25.4l4.4-14.6h6.8l-9.6,27.1l-0.5,1.2c-1.4,3.1-3.8,4.6-7.1,4.6c-0.9,0-1.9-0.1-2.8-0.4v-4.7l1,0
	c1.2,0,2.1-0.2,2.7-0.5c0.6-0.4,1.1-1,1.4-1.8l0.8-1.9l-8.4-23.5h6.9L60.7,25.4z"/>
<path d="M85.1,34.7c-3.5,0-6.4-1.1-8.6-3.2c-2.2-2.1-3.3-4.9-3.3-8.4v-0.6c0-2.4,0.5-4.5,1.4-6.3c0.9-1.9,2.2-3.3,3.9-4.3
	c1.7-1,3.7-1.5,5.8-1.5c3.3,0,5.8,1,7.7,3c1.9,2,2.8,4.9,2.8,8.6v2.6H79.8c0.2,1.5,0.8,2.8,1.9,3.7c1,0.9,2.4,1.4,4,1.4
	c2.5,0,4.4-0.9,5.8-2.6l3.1,3.4c-1,1.3-2.3,2.4-3.9,3.1C88.9,34.4,87.1,34.7,85.1,34.7z M84.4,15.5c-1.3,0-2.3,0.4-3.1,1.3
	c-0.8,0.8-1.3,2-1.5,3.6h8.9v-0.5c0-1.4-0.4-2.5-1.1-3.2C86.8,15.9,85.8,15.5,84.4,15.5z"/>
<path d="M112.5,34.3c-0.3-0.6-0.5-1.3-0.6-2.1c-1.5,1.7-3.6,2.5-6,2.5c-2.3,0-4.3-0.7-5.8-2c-1.5-1.3-2.3-3-2.3-5
	c0-2.5,0.9-4.4,2.8-5.7c1.9-1.3,4.6-2,8.1-2h2.9v-1.3c0-1.1-0.3-2-0.9-2.6c-0.6-0.7-1.4-1-2.7-1c-1.1,0-1.9,0.3-2.5,0.8
	c-0.6,0.5-0.9,1.2-0.9,2.1h-6.4c0-1.4,0.4-2.6,1.3-3.8c0.9-1.2,2.1-2.1,3.6-2.7c1.6-0.7,3.3-1,5.3-1c2.9,0,5.3,0.7,7,2.2
	c1.7,1.4,2.6,3.5,2.6,6.1v10.2c0,2.2,0.3,3.9,0.9,5.1v0.4H112.5z M107.2,29.9c0.9,0,1.8-0.2,2.6-0.6c0.8-0.4,1.4-1,1.8-1.7v-4h-2.4
	c-3.2,0-4.9,1.1-5.1,3.3l0,0.4c0,0.8,0.3,1.4,0.8,1.9C105.4,29.7,106.2,29.9,107.2,29.9z"/>
<path d="M136.3,16.7c-0.9-0.1-1.6-0.2-2.3-0.2c-2.4,0-4,0.8-4.7,2.4v15.4h-6.4V10.8h6l0.2,2.8c1.3-2.2,3.1-3.2,5.3-3.2
	c0.7,0,1.4,0.1,2,0.3L136.3,16.7z"/>
<path d="M145.3,10.8l0.2,2.7c1.7-2.1,4-3.1,6.9-3.1c2.5,0,4.4,0.7,5.7,2.2c1.2,1.5,1.9,3.6,1.9,6.5v15.2h-6.4v-15
	c0-1.3-0.3-2.3-0.9-2.9c-0.6-0.6-1.6-0.9-2.9-0.9c-1.8,0-3.1,0.8-4,2.3v16.5h-6.4V10.8H145.3z"/>
<path class="st1" d="M35.8,25.4c0-2.2-0.5-4.5-1.3-6.5c-0.9-2.1-2.2-4-3.8-5.5c-1.6-1.6-3.5-2.8-5.6-3.7c-2.1-0.9-4.4-1.3-6.7-1.3
	c-2.3,0-4.6,0.4-6.7,1.3c-2.1,0.9-4,2.1-5.6,3.7c-1.6,1.6-2.9,3.5-3.8,5.5C1.5,21,1,23.2,1,25.4s0.5,4.5,1.3,6.5
	c0.9,2.1,2.2,4,3.8,5.5c1.6,1.6,3.5,2.8,5.6,3.7c2.1,0.9,4.4,1.3,6.7,1.3c2.3,0,4.6-0.4,6.7-1.3c2.1-0.9,4-2.1,5.6-3.7
	c1.6-1.6,2.9-3.5,3.8-5.5C35.4,29.9,35.8,27.7,35.8,25.4z"/>
<path class="st2" d="M17.5,17.7h1.8v15.4h-1.8V17.7z"/>
<path class="st2" d="M16.5,25v-1.8C15,22.4,14,21,14,19.3c0-2.4,2-4.3,4.4-4.3c2.7,0,4.7,1.9,4.7,4.3c0,0.6-0.1,1.2-0.4,1.8
	l-0.8-2.5l-1.5,0.5l1.4,5.1l5.3-1.9l-0.6-1.5l-2,0.7c0.4-0.8,0.4-1.3,0.4-2.2c0-3.3-2.7-6-6.4-6c-3.4,0-6.1,2.7-6.1,6
	C12.3,21.9,14.1,24.2,16.5,25z"/>
<path class="st2" d="M20.3,25.9v1.8c1.4,0.7,2.4,2.2,2.4,3.8c0,2.4-2,4.3-4.4,4.3c-2.7,0-4.7-1.9-4.7-4.3c0-0.6,0.1-1.2,0.4-1.8
	l0.8,2.5l1.5-0.5l-1.4-5.1l-5.3,1.9l0.6,1.5l2-0.7c-0.4,0.8-0.4,1.3-0.4,2.2c0,3.3,2.7,6,6.4,6c3.4,0,6.1-2.7,6.1-6
	C24.5,28.9,22.8,26.7,20.3,25.9z"/>
</svg>
