<svg width="256" height="59" viewBox="0 0 256 59" fill="none" xmlns="http://www.w3.org/2000/svg">
<path d="M96.0261 27.9943L103.131 4.08711H114.143L98.6903 48.4913L97.8378 50.5161C95.5406 55.5367 91.7515 58.0471 86.4703 58.0471C84.9784 58.0471 83.4627 57.8221 81.9233 57.3721V49.5925L83.4864 49.628C85.4283 49.628 86.8729 49.332 87.8202 48.7399C88.7912 48.1479 89.549 47.1651 90.0937 45.7915L91.3015 42.6299L77.8381 4.08711H88.8859L96.0261 27.9943Z" fill="#0657F9"/>
<path d="M135.386 43.2338C129.75 43.2338 125.155 41.505 121.603 38.0474C118.074 34.5898 116.31 29.9836 116.31 24.2288V23.2342C116.31 19.374 117.056 15.9282 118.548 12.8969C120.04 9.84189 122.148 7.49735 124.871 5.86328C127.618 4.20553 130.744 3.37665 134.249 3.37665C139.507 3.37665 143.639 5.0344 146.647 8.34991C149.678 11.6654 151.194 16.3663 151.194 22.4527V26.6444H126.718C127.05 29.1547 128.044 31.1677 129.702 32.6834C131.384 34.1991 133.503 34.9569 136.061 34.9569C140.016 34.9569 143.106 33.5241 145.332 30.6586L150.377 36.3068C148.837 38.4855 146.753 40.1907 144.125 41.4221C141.496 42.6299 138.583 43.2338 135.386 43.2338ZM134.214 11.6891C132.177 11.6891 130.519 12.3759 129.24 13.7495C127.985 15.123 127.18 17.0887 126.825 19.6463H141.105V18.8293C141.058 16.5558 140.442 14.8033 139.258 13.5718C138.074 12.3167 136.392 11.6891 134.214 11.6891Z" fill="#0657F9"/>
<path d="M179.328 42.5234C178.855 41.5998 178.511 40.4512 178.298 39.0776C175.811 41.8484 172.579 43.2338 168.6 43.2338C164.835 43.2338 161.709 42.1444 159.222 39.9657C156.759 37.7869 155.528 35.0398 155.528 31.7243C155.528 27.6509 157.031 24.5249 160.039 22.3461C163.07 20.1673 167.44 19.0661 173.147 19.0424H177.872V16.84C177.872 15.0638 177.41 13.6429 176.486 12.5772C175.586 11.5115 174.154 10.9786 172.188 10.9786C170.459 10.9786 169.098 11.3931 168.103 12.222C167.132 13.0508 166.646 14.1876 166.646 15.6322H156.38C156.38 13.4061 157.067 11.3457 158.441 9.45114C159.814 7.55656 161.756 6.07642 164.266 5.01072C166.777 3.92134 169.595 3.37665 172.721 3.37665C177.457 3.37665 181.211 4.5726 183.982 6.9645C186.776 9.33273 188.174 12.6719 188.174 16.9821V33.6425C188.197 37.2896 188.706 40.0486 189.701 41.9195V42.5234H179.328ZM170.838 35.3832C172.354 35.3832 173.751 35.0516 175.03 34.3885C176.309 33.7017 177.256 32.79 177.872 31.6532V25.0459H174.035C168.896 25.0459 166.161 26.822 165.829 30.3744L165.794 30.9783C165.794 32.2571 166.244 33.311 167.144 34.1399C168.044 34.9687 169.275 35.3832 170.838 35.3832Z" fill="#0657F9"/>
<path d="M217.658 13.7139C216.261 13.5245 215.029 13.4298 213.964 13.4298C210.08 13.4298 207.534 14.7441 206.326 17.3728V42.5234H196.06V4.08711H205.758L206.042 8.66962C208.102 5.14097 210.956 3.37665 214.603 3.37665C215.74 3.37665 216.805 3.53058 217.8 3.83845L217.658 13.7139Z" fill="#0657F9"/>
<path d="M232.08 4.08711L232.4 8.52753C235.147 5.09361 238.83 3.37665 243.448 3.37665C247.521 3.37665 250.553 4.5726 252.542 6.9645C254.531 9.35641 255.55 12.9324 255.597 17.6926V42.5234H245.331V17.9412C245.331 15.7625 244.857 14.1876 243.91 13.2166C242.962 12.222 241.388 11.7246 239.185 11.7246C236.296 11.7246 234.129 12.9561 232.684 15.4191V42.5234H222.418V4.08711H232.08Z" fill="#0657F9"/>
<path fill-rule="evenodd" clip-rule="evenodd" d="M56 28C56 24.3354 55.2709 20.6707 53.8686 17.285C52.4664 13.8992 50.3905 10.7923 47.7988 8.2012C45.2077 5.60952 42.1008 3.5336 38.715 2.13136C35.3293 0.72912 31.6646 0 28 0C24.3354 0 20.6707 0.72912 17.285 2.13136C13.8992 3.5336 10.7923 5.60952 8.2012 8.2012C5.60952 10.7923 3.5336 13.8992 2.13136 17.285C0.72912 20.6707 0 24.3354 0 28C0 31.6646 0.72912 35.3293 2.13136 38.715C3.5336 42.1008 5.60952 45.2077 8.2012 47.7988C10.7923 50.3905 13.8992 52.4664 17.285 53.8686C20.6707 55.2709 24.3354 56 28 56C31.6646 56 35.3293 55.2709 38.715 53.8686C42.1008 52.4664 45.2077 50.3905 47.7988 47.7988C50.3905 45.2077 52.4664 42.1008 53.8686 38.715C55.2709 35.3293 56 31.6646 56 28Z" fill="#0657F9"/>
<path fill-rule="evenodd" clip-rule="evenodd" d="M26.553 15.358H29.4471V40.6431H26.553V15.358Z" fill="white"/>
<path fill-rule="evenodd" clip-rule="evenodd" d="M24.9104 27.2524V24.2306C22.5892 23.0888 20.991 20.6998 20.991 17.9379C20.991 14.0683 24.1292 10.9301 27.9999 10.9301C32.3461 10.9301 35.4843 14.0683 35.4843 17.9379C35.4843 18.9134 35.2838 19.8425 34.8028 20.9462L33.5669 16.9282L31.0894 17.7027L33.2863 26.0646L41.8151 22.927L40.7786 20.4814L37.5978 21.5701C38.1734 20.3218 38.2866 19.404 38.2866 17.9379C38.2866 12.5193 33.8939 8.12671 27.9999 8.12671C22.5814 8.12671 18.1887 12.5193 18.1887 17.9379C18.1887 22.2768 21.0061 25.9577 24.9104 27.2524Z" fill="white"/>
<path fill-rule="evenodd" clip-rule="evenodd" d="M31.0895 28.7487V31.7704C33.4107 32.9128 35.009 35.3012 35.009 38.0632C35.009 41.9328 31.8707 45.071 28 45.071C23.6539 45.071 20.5156 41.9328 20.5156 38.0632C20.5156 37.0876 20.7161 36.1586 21.1971 35.0548L22.4331 39.0728L24.9105 38.2984L22.7136 29.9364L14.1848 33.0747L15.2214 35.5196L18.4022 34.431C17.8265 35.6792 17.7134 36.5971 17.7134 38.0632C17.7134 43.4817 22.106 47.8744 28 47.8744C33.4186 47.8744 37.8112 43.4817 37.8112 38.0632C37.8112 33.7243 34.9939 30.0434 31.0895 28.7487Z" fill="white"/>
</svg>
